{"asset":{"generator":"Khronos glTF Spline I/O v0.0.1","version":"2.0"},"scenes":[{"nodes":[0]}],"nodes":[{"name":"Untitled","children":[1,2,3,4]},{"name":"#271D1D","matrix":[2.220446049250314e-16,0,-1.0000000000000004,0,0,1,0,0,1.0000000000000004,0,2.220446049250314e-16,0,0,0.9588067797286275,0,1],"mesh":0},{"name":"#271D1D","matrix":[1,0,0,0,0,1,0,0,0,0,1,0,0,0.8988095612911007,0,1],"mesh":1},{"name":"#87F5CB","matrix":[1,0,0,0,0,1,0,0,0,0,1,0,0,0,0,1],"mesh":2},{"name":"Default Camera","camera":0,"translation":[64.80503161995024,92.35507415166055,-112.28966291870577],"rotation":[-0.07015370960482957,0.929667133915094,0.26502073968767564,0.24609243117611992],"children":[5]},{"name":"Default Directional Light","translation":[850000,1300000,1000000],"rotation":[-0.45895513091666534,0.1367267597249462,-0.25064115022945466,0.8413352451859125],"extensions":{"KHR_lights_punctual":{"light":0}}}],"cameras":[{"type":"perspective","perspective":{"aspectRatio":1.934844192634561,"yfov":0.7853981633974483,"znear":50,"zfar":50000}}],"meshes":[{"primitives":[{"attributes":{"POSITION":1,"NORMAL":2,"TEXCOORD_0":3},"indices":0}]},{"primitives":[{"attributes":{"POSITION":5,"NORMAL":6,"TEXCOORD_0":7},"indices":4}]},{"primitives":[{"attributes":{"POSITION":9,"NORMAL":10,"TEXCOORD_0":11},"indices":8}]}],"buffers":[{"uri":"data:application/octet-stream;base64,","byteLength":19560},{"uri":"data:application/octet-stream;base64,","byteLength":19560},{"uri":"data:application/octet-stream;base64,","byteLength":19560}],"bufferViews":[{"buffer":0,"byteOffset":0,"byteLength":3432,"target":34963},{"buffer":0,"byteOffset":3432,"byteLength":6048,"target":34962},{"buffer":0,"byteOffset":9480,"byteLength":6048,"target":34962},{"buffer":0,"byteOffset":15528,"byteLength":4032,"target":34962},{"buffer":1,"byteOffset":0,"byteLength":3432,"target":34963},{"buffer":1,"byteOffset":3432,"byteLength":6048,"target":34962},{"buffer":1,"byteOffset":9480,"byteLength":6048,"target":34962},{"buffer":1,"byteOffset":15528,"byteLength":4032,"target":34962},{"buffer":2,"byteOffset":0,"byteLength":3432,"target":34963},{"buffer":2,"byteOffset":3432,"byteLength":6048,"target":34962},{"buffer":2,"byteOffset":9480,"byteLength":6048,"target":34962},{"buffer":2,"byteOffset":15528,"byteLength":4032,"target":34962}],"accessors":[{"bufferView":0,"byteOffset":0,"componentType":5123,"count":1716,"type":"SCALAR","min":[0],"max":[503]},{"bufferView":1,"byteOffset":0,"componentType":5126,"count":504,"type":"VEC3","min":[-5,-14,-14],"max":[5,14,14]},{"bufferView":2,"byteOffset":0,"componentType":5126,"count":504,"type":"VEC3","min":[-1,-1,-1],"max":[1,1,1]},{"bufferView":3,"byteOffset":0,"componentType":5126,"count":504,"type":"VEC2","min":[0,0],"max":[1,1]},{"bufferView":4,"byteOffset":0,"componentType":5123,"count":1716,"type":"SCALAR","min":[0],"max":[503]},{"bufferView":5,"byteOffset":0,"componentType":5126,"count":504,"type":"VEC3","min":[-5,-14,-14],"max":[5,14,14]},{"bufferView":6,"byteOffset":0,"componentType":5126,"count":504,"type":"VEC3","min":[-1,-1,-1],"max":[1,1,1]},{"bufferView":7,"byteOffset":0,"componentType":5126,"count":504,"type":"VEC2","min":[0,0],"max":[1,1]},{"bufferView":8,"byteOffset":0,"componentType":5123,"count":1716,"type":"SCALAR","min":[0],"max":[503]},{"bufferView":9,"byteOffset":0,"componentType":5126,"count":504,"type":"VEC3","min":[-13,-13,-13],"max":[13,13,13]},{"bufferView":10,"byteOffset":0,"componentType":5126,"count":504,"type":"VEC3","min":[-1,-1,-1],"max":[1,1,1]},{"bufferView":11,"byteOffset":0,"componentType":5126,"count":504,"type":"VEC2","min":[0,0],"max":[1,1]}],"extensions":{"KHR_lights_punctual":{"lights":[{"type":"directional","name":"Default Directional Light","color":[1,1,1],"intensity":0.75}]}},"extensionsUsed":["KHR_lights_punctual"]}