{"asset":{"generator":"Khronos glTF Spline I/O v0.0.1","version":"2.0"},"scenes":[{"nodes":[0]}],"nodes":[{"name":"Untitled","children":[1,2,3,4,5,6,7]},{"name":"#00FFF3","matrix":[-0.5282987992050635,1.6867762382857594e-16,0.8490585249312979,0,1.224646799147358e-16,1.0000000000000009,-1.2246467991473535e-16,0,-2.38917616024258,1.1053536022953866e-16,-1.4865864477924546,0,-1.9753925343285204,0.21999999999999992,-1.4246080139426955,1],"mesh":0},{"name":"#030004","matrix":[1.3,0,0,0,0,2.886579864025407e-16,-1.3,0,0,1.3,2.886579864025407e-16,0,0,-1.4890546774200946,2.498001805406602e-16,1],"mesh":1},{"name":"#892ED4","matrix":[1.3,0,0,0,0,2.886579864025407e-16,-1.3,0,0,1.3,2.886579864025407e-16,0,0,-1.132480562722261,-1.249000902703301e-16,1],"mesh":2},{"name":"#030004","matrix":[1,0,0,0,0,1,0,0,0,0,1,0,0,0,0,1],"mesh":3},{"name":"Default Camera","camera":0,"translation":[64.46116588708483,-0.8483213470150603,-22.825104445203507],"rotation":[0.01144865220681242,0.8216106154145388,-0.016511177816712984,0.5696949236283355],"children":[8]},{"name":"#00FFF3","matrix":[0.9999753656445383,-1.2160206828156512e-16,0.007019124169605705,0,1.2246467991473429e-16,1.0000000000000009,-1.2246467991473542e-16,0,-0.01975119928648193,3.4701519471857475e-16,2.813842902785889,0,0.06844768845728177,0.2230676054485676,2.3144095502471194,1],"mesh":4},{"name":"#00FFF3","matrix":[-0.49131009086328287,-4.64967327826195e-17,-0.8709847269705426,0,1.2246467991473542e-16,1.0000000000000009,-1.224646799147358e-16,0,2.4508745681362694,-4.694534143498252e-16,-1.3825034693246285,0,2.3864865357052345,0.22000000000000003,-1.4624173145674815,1],"mesh":5},{"name":"Default Directional Light","translation":[850000,1300000,1000000],"rotation":[-0.45895513091666534,0.1367267597249462,-0.25064115022945466,0.8413352451859125],"extensions":{"KHR_lights_punctual":{"light":0}}}],"cameras":[{"type":"perspective","perspective":{"aspectRatio":1.934844192634561,"yfov":0.7853981633974483,"znear":50,"zfar":50000}}],"meshes":[{"primitives":[{"attributes":{"POSITION":1,"NORMAL":2,"TEXCOORD_0":3},"indices":0}]},{"primitives":[{"attributes":{"POSITION":5,"NORMAL":6,"TEXCOORD_0":7},"indices":4}]},{"primitives":[{"attributes":{"POSITION":9,"NORMAL":10,"TEXCOORD_0":11},"indices":8}]},{"primitives":[{"attributes":{"POSITION":13,"NORMAL":14,"TEXCOORD_0":15},"indices":12}]},{"primitives":[{"attributes":{"POSITION":17,"NORMAL":18,"TEXCOORD_0":19},"indices":16}]},{"primitives":[{"attributes":{"POSITION":21,"NORMAL":22,"TEXCOORD_0":23},"indices":20}]}],"buffers":[{"uri":"data:application/octet-stream;base64,","byteLength":19560},{"uri":"data:application/octet-stream;base64,","byteLength":106224},{"uri":"data:application/octet-stream;base64,","byteLength":106224},{"uri":"data:application/octet-stream;base64,","byteLength":13952},{"uri":"data:application/octet-stream;base64,","byteLength":19560},{"uri":"data:application/octet-stream;base64,","byteLength":19560}],"bufferViews":[{"buffer":0,"byteOffset":0,"byteLength":3432,"target":34963},{"buffer":0,"byteOffset":3432,"byteLength":6048,"target":34962},{"buffer":0,"byteOffset":9480,"byteLength":6048,"target":34962},{"buffer":0,"byteOffset":15528,"byteLength":4032,"target":34962},{"buffer":1,"byteOffset":0,"byteLength":11760,"target":34963},{"buffer":1,"byteOffset":11760,"byteLength":31488,"target":34962},{"buffer":1,"byteOffset":43248,"byteLength":31488,"target":34962},{"buffer":1,"byteOffset":74736,"byteLength":31488,"target":34962},{"buffer":2,"byteOffset":0,"byteLength":11760,"target":34963},{"buffer":2,"byteOffset":11760,"byteLength":31488,"target":34962},{"buffer":2,"byteOffset":43248,"byteLength":31488,"target":34962},{"buffer":2,"byteOffset":74736,"byteLength":31488,"target":34962},{"buffer":3,"byteOffset":0,"byteLength":1536,"target":34963},{"buffer":3,"byteOffset":1536,"byteLength":4656,"target":34962},{"buffer":3,"byteOffset":6192,"byteLength":4656,"target":34962},{"buffer":3,"byteOffset":10848,"byteLength":3104,"target":34962},{"buffer":4,"byteOffset":0,"byteLength":3432,"target":34963},{"buffer":4,"byteOffset":3432,"byteLength":6048,"target":34962},{"buffer":4,"byteOffset":9480,"byteLength":6048,"target":34962},{"buffer":4,"byteOffset":15528,"byteLength":4032,"target":34962},{"buffer":5,"byteOffset":0,"byteLength":3432,"target":34963},{"buffer":5,"byteOffset":3432,"byteLength":6048,"target":34962},{"buffer":5,"byteOffset":9480,"byteLength":6048,"target":34962},{"buffer":5,"byteOffset":15528,"byteLength":4032,"target":34962}],"accessors":[{"bufferView":0,"byteOffset":0,"componentType":5123,"count":1716,"type":"SCALAR","min":[0],"max":[503]},{"bufferView":1,"byteOffset":0,"componentType":5126,"count":504,"type":"VEC3","min":[-0.5,-2,-1.100000023841858],"max":[0.5,2,1.100000023841858]},{"bufferView":2,"byteOffset":0,"componentType":5126,"count":504,"type":"VEC3","min":[-1,-1,-1],"max":[1,1,1]},{"bufferView":3,"byteOffset":0,"componentType":5126,"count":504,"type":"VEC2","min":[0,0],"max":[1,1]},{"bufferView":4,"byteOffset":0,"componentType":5125,"count":2940,"type":"SCALAR","min":[0],"max":[983]},{"bufferView":5,"byteOffset":0,"componentType":5126,"count":984,"type":"VEC3","min":[-4.763139724731445,-5.232050895690918,0],"max":[4.763139724731445,5.234455585479736,2.5]},{"bufferView":6,"byteOffset":0,"componentType":5126,"count":984,"type":"VEC3","min":[-1,-0.9999163746833801,-1],"max":[1,0.9999138116836548,1]},{"bufferView":7,"byteOffset":0,"componentType":5126,"count":984,"type":"VEC2","min":[0,0],"max":[1,1]},{"bufferView":8,"byteOffset":0,"componentType":5125,"count":2940,"type":"SCALAR","min":[0],"max":[983]},{"bufferView":9,"byteOffset":0,"componentType":5126,"count":984,"type":"VEC3","min":[-5.629165172576904,-6.217708587646484,0],"max":[5.629165172576904,6.232050895690918,2]},{"bufferView":10,"byteOffset":0,"componentType":5126,"count":984,"type":"VEC3","min":[-1,-0.9999302625656128,-1],"max":[1,0.9999163746833801,1]},{"bufferView":11,"byteOffset":0,"componentType":5126,"count":984,"type":"VEC2","min":[0,0],"max":[1,1]},{"bufferView":12,"byteOffset":0,"componentType":5123,"count":768,"type":"SCALAR","min":[0],"max":[387]},{"bufferView":13,"byteOffset":0,"componentType":5126,"count":388,"type":"VEC3","min":[-9.5,-0.75,-9.5],"max":[9.5,0.75,9.5]},{"bufferView":14,"byteOffset":0,"componentType":5126,"count":388,"type":"VEC3","min":[-1,-1,-1],"max":[1,1,1]},{"bufferView":15,"byteOffset":0,"componentType":5126,"count":388,"type":"VEC2","min":[0,0],"max":[1,1]},{"bufferView":16,"byteOffset":0,"componentType":5123,"count":1716,"type":"SCALAR","min":[0],"max":[503]},{"bufferView":17,"byteOffset":0,"componentType":5126,"count":504,"type":"VEC3","min":[-0.5,-2,-1.100000023841858],"max":[0.5,2,1.100000023841858]},{"bufferView":18,"byteOffset":0,"componentType":5126,"count":504,"type":"VEC3","min":[-1,-1,-1],"max":[1,1,1]},{"bufferView":19,"byteOffset":0,"componentType":5126,"count":504,"type":"VEC2","min":[0,0],"max":[1,1]},{"bufferView":20,"byteOffset":0,"componentType":5123,"count":1716,"type":"SCALAR","min":[0],"max":[503]},{"bufferView":21,"byteOffset":0,"componentType":5126,"count":504,"type":"VEC3","min":[-0.5,-2,-1.100000023841858],"max":[0.5,2,1.100000023841858]},{"bufferView":22,"byteOffset":0,"componentType":5126,"count":504,"type":"VEC3","min":[-1,-1,-1],"max":[1,1,1]},{"bufferView":23,"byteOffset":0,"componentType":5126,"count":504,"type":"VEC2","min":[0,0],"max":[1,1]}],"extensions":{"KHR_lights_punctual":{"lights":[{"type":"directional","name":"Default Directional Light","color":[1,1,1],"intensity":0.75}]}},"extensionsUsed":["KHR_lights_punctual"]}