{"asset":{"generator":"Khronos glTF Spline I/O v0.0.1","version":"2.0"},"scenes":[{"nodes":[0]}],"nodes":[{"name":"coin","children":[1,2,3,4,5,6]},{"name":"#00FFF3","matrix":[-0.4870032223622,1.6660136631273588e-16,0.8734001725491339,0,1.224646799147358e-16,1.0000000000000009,-1.224646799147353e-16,0,-2.4576714199707212,1.331542667453235e-16,-1.3703843194121794,0,-1.8453825736372638,0.21999999999999997,-1.028689271136046,1],"mesh":0},{"name":"#030004","matrix":[1.3,-9.614242282381082e-32,0,0,7.216449660063518e-17,2.886579864025407e-16,-1.3,0,4.807121141190541e-32,1.3,2.886579864025406e-16,0,-8.728275939666294e-32,-1.4890546774200946,-1.942890293094023e-16,1],"mesh":1},{"name":"#892ED4","matrix":[1.3,-3.364984798833378e-32,1.3876139090091446e-47,0,-2.1649348980190556e-17,2.8865798640254076e-16,-1.3,0,6.890206969039775e-32,1.3,2.8865798640254056e-16,0,-5.808884423008417e-32,-1.1324805627222616,-5.658685348252991e-16,1],"mesh":2},{"name":"Default Camera","camera":0,"translation":[13.557075167532744,49.712239111028516,35.67490776839141],"rotation":[0.16197091653519535,0.4349139739530277,0.8821785368436751,-0.07985165364278048],"children":[7]},{"name":"#00FFF3","matrix":[0.999567392522299,-1.1880984859570266e-16,0.02941135505562866,0,1.2246467991473438e-16,1.0000000000000009,-1.224646799147359e-16,0,-0.08276097144778624,3.5459107677732567e-16,2.812694902231095,0,-0.17950100726492993,0.22306760544856766,2.219831926809049,1],"mesh":3},{"name":"#00FFF3","matrix":[-0.5652049882160107,-3.180965050309746e-17,-0.8249504962697953,0,1.224646799147353e-16,1.0000000000000009,-1.2246467991473581e-16,0,2.32133828375089,-4.790543354680834e-16,-1.5904372241067206,0,1.8066676380197,0.2200000000000002,-1.2481416905205491,1],"mesh":4},{"name":"Default Directional Light","translation":[850000,1300000,1000000],"rotation":[-0.45895513091666534,0.1367267597249462,-0.25064115022945466,0.8413352451859125],"extensions":{"KHR_lights_punctual":{"light":0}}}],"cameras":[{"type":"perspective","perspective":{"aspectRatio":1.934844192634561,"yfov":0.7853981633974483,"znear":50,"zfar":50000}}],"meshes":[{"primitives":[{"attributes":{"POSITION":1,"NORMAL":2,"TEXCOORD_0":3},"indices":0}]},{"primitives":[{"attributes":{"POSITION":5,"NORMAL":6,"TEXCOORD_0":7},"indices":4}]},{"primitives":[{"attributes":{"POSITION":9,"NORMAL":10,"TEXCOORD_0":11},"indices":8}]},{"primitives":[{"attributes":{"POSITION":13,"NORMAL":14,"TEXCOORD_0":15},"indices":12}]},{"primitives":[{"attributes":{"POSITION":17,"NORMAL":18,"TEXCOORD_0":19},"indices":16}]}],"buffers":[{"uri":"data:application/octet-stream;base64,","byteLength":19560},{"uri":"data:application/octet-stream;base64,","byteLength":106224},{"uri":"data:application/octet-stream;base64,","byteLength":106224},{"uri":"data:application/octet-stream;base64,","byteLength":19560},{"uri":"data:application/octet-stream;base64,","byteLength":19560}],"bufferViews":[{"buffer":0,"byteOffset":0,"byteLength":3432,"target":34963},{"buffer":0,"byteOffset":3432,"byteLength":6048,"target":34962},{"buffer":0,"byteOffset":9480,"byteLength":6048,"target":34962},{"buffer":0,"byteOffset":15528,"byteLength":4032,"target":34962},{"buffer":1,"byteOffset":0,"byteLength":11760,"target":34963},{"buffer":1,"byteOffset":11760,"byteLength":31488,"target":34962},{"buffer":1,"byteOffset":43248,"byteLength":31488,"target":34962},{"buffer":1,"byteOffset":74736,"byteLength":31488,"target":34962},{"buffer":2,"byteOffset":0,"byteLength":11760,"target":34963},{"buffer":2,"byteOffset":11760,"byteLength":31488,"target":34962},{"buffer":2,"byteOffset":43248,"byteLength":31488,"target":34962},{"buffer":2,"byteOffset":74736,"byteLength":31488,"target":34962},{"buffer":3,"byteOffset":0,"byteLength":3432,"target":34963},{"buffer":3,"byteOffset":3432,"byteLength":6048,"target":34962},{"buffer":3,"byteOffset":9480,"byteLength":6048,"target":34962},{"buffer":3,"byteOffset":15528,"byteLength":4032,"target":34962},{"buffer":4,"byteOffset":0,"byteLength":3432,"target":34963},{"buffer":4,"byteOffset":3432,"byteLength":6048,"target":34962},{"buffer":4,"byteOffset":9480,"byteLength":6048,"target":34962},{"buffer":4,"byteOffset":15528,"byteLength":4032,"target":34962}],"accessors":[{"bufferView":0,"byteOffset":0,"componentType":5123,"count":1716,"type":"SCALAR","min":[0],"max":[503]},{"bufferView":1,"byteOffset":0,"componentType":5126,"count":504,"type":"VEC3","min":[-0.5,-2,-0.8500000238418579],"max":[0.5,2,0.8500000238418579]},{"bufferView":2,"byteOffset":0,"componentType":5126,"count":504,"type":"VEC3","min":[-1,-1,-1],"max":[1,1,1]},{"bufferView":3,"byteOffset":0,"componentType":5126,"count":504,"type":"VEC2","min":[0,0],"max":[1,1]},{"bufferView":4,"byteOffset":0,"componentType":5125,"count":2940,"type":"SCALAR","min":[0],"max":[983]},{"bufferView":5,"byteOffset":0,"componentType":5126,"count":984,"type":"VEC3","min":[-4.763139724731445,-5.232050895690918,0],"max":[4.763139724731445,5.234455585479736,2.5]},{"bufferView":6,"byteOffset":0,"componentType":5126,"count":984,"type":"VEC3","min":[-1,-0.9999163746833801,-1],"max":[1,0.9999138116836548,1]},{"bufferView":7,"byteOffset":0,"componentType":5126,"count":984,"type":"VEC2","min":[0,0],"max":[1,1]},{"bufferView":8,"byteOffset":0,"componentType":5125,"count":2940,"type":"SCALAR","min":[0],"max":[983]},{"bufferView":9,"byteOffset":0,"componentType":5126,"count":984,"type":"VEC3","min":[-6.495190620422363,-7.232050895690918,0],"max":[6.495190620422363,7.232050895690918,2]},{"bufferView":10,"byteOffset":0,"componentType":5126,"count":984,"type":"VEC3","min":[-1,-0.9999163746833801,-1],"max":[1,0.9999163746833801,1]},{"bufferView":11,"byteOffset":0,"componentType":5126,"count":984,"type":"VEC2","min":[0,0],"max":[1,1]},{"bufferView":12,"byteOffset":0,"componentType":5123,"count":1716,"type":"SCALAR","min":[0],"max":[503]},{"bufferView":13,"byteOffset":0,"componentType":5126,"count":504,"type":"VEC3","min":[-0.5,-2,-0.8500000238418579],"max":[0.5,2,0.8500000238418579]},{"bufferView":14,"byteOffset":0,"componentType":5126,"count":504,"type":"VEC3","min":[-1,-1,-1],"max":[1,1,1]},{"bufferView":15,"byteOffset":0,"componentType":5126,"count":504,"type":"VEC2","min":[0,0],"max":[1,1]},{"bufferView":16,"byteOffset":0,"componentType":5123,"count":1716,"type":"SCALAR","min":[0],"max":[503]},{"bufferView":17,"byteOffset":0,"componentType":5126,"count":504,"type":"VEC3","min":[-0.5,-2,-0.8500000238418579],"max":[0.5,2,0.8500000238418579]},{"bufferView":18,"byteOffset":0,"componentType":5126,"count":504,"type":"VEC3","min":[-1,-1,-1],"max":[1,1,1]},{"bufferView":19,"byteOffset":0,"componentType":5126,"count":504,"type":"VEC2","min":[0,0],"max":[1,1]}],"extensions":{"KHR_lights_punctual":{"lights":[{"type":"directional","name":"Default Directional Light","color":[1,1,1],"intensity":2.381}]}},"extensionsUsed":["KHR_lights_punctual"]}