{"asset":{"generator":"Khronos glTF Spline I/O v0.0.1","version":"2.0"},"scenes":[{"nodes":[0]}],"nodes":[{"name":"Untitled","children":[1,2,3,4,5,6,7,8,9]},{"name":"Sphere 9","matrix":[1,0,0,0,0,0.9747947465507072,-0.2231035680959458,0,0,0.2231035680959458,0.9747947465507072,0,0,140.692561333407,-4.690837496301694,1],"mesh":0},{"name":"Sphere 13","matrix":[1,0,0,0,0,0.9743214744027834,-0.22516141880345827,0,0,0.22516141880345827,0.9743214744027834,0,0,141.07412228117937,0,1],"mesh":1},{"name":"Cube 5","matrix":[1.2728975345661597,0,0.767085972348666,0,0,1.2203146952955741,0,0,-0.737545410285359,0,1.2238781156541547,0,0.8896399797534738,209.16764079141512,0.771775955614661,1],"mesh":2,"children":[10]},{"name":"Cube 4","matrix":[-0.38849267281173405,-0.19197066004706956,0.010613997620893814,0,-0.23672187434215733,0.4783836009302089,-0.012162999704082512,0,-0.011851196017596507,-0.03127538723329622,-0.9994405431572067,0,0.598066785911747,84.06503229928381,0.267041849388729,1],"mesh":3,"children":[11]},{"name":"Cube 3","matrix":[0.9853421485277564,-0.17058971344927185,0,0,0.17058971344927185,0.9853421485277564,0,0,0,0,1,0,8.51496089923603,200.70746432148553,0,1],"mesh":4,"children":[12]},{"name":"Cube 2","matrix":[0.9849758375221842,0.17269221029760215,0,0,-0.17269221029760215,0.9849758375221842,0,0,0,0,1,0,-8.640059989484143,201.82719162312833,0,1],"mesh":5,"children":[13]},{"name":"Sphere 12","matrix":[1,0,0,0,0,1,0,0,0,0,1,0,0,115.93397996658496,76.16792902847374,1],"mesh":6},{"name":"Sphere","matrix":[1,0,0,0,0,1,0,0,0,0,1,0,0,0,0,1],"mesh":7,"children":[14,15,16,17,18,19,20]},{"name":"Default Camera","camera":0,"translation":[100.79904850119809,148.48529778575428,991.389310530845],"rotation":[-0.042585477782358265,0.0498987387095323,0.002129553576170964,0.9978437041735605],"children":[21]},{"name":"Cube","matrix":[-0.7130778594162943,0.7007914351386548,0.0202812930204128,0,0.7010848496510782,0.7127794256496187,0.02062823211824964,0,-2.602085213965214e-18,-0.02892844287036953,0.9995814850191534,0,6.244558421765319,15.120212331918196,-0.5628313547218893,1],"mesh":8},{"name":"Cube","matrix":[-0.7130778594162943,0.7007914351386548,0.0202812930204128,0,0.7010848496510782,0.7127794256496187,0.02062823211824964,0,-2.602085213965214e-18,-0.02892844287036953,0.9995814850191534,0,6.244558421765319,15.120212331918196,-0.5628313547218893,1],"mesh":9},{"name":"Cube","matrix":[-0.7130778594162943,0.7007914351386548,0.0202812930204128,0,0.7010848496510782,0.7127794256496187,0.02062823211824964,0,-2.602085213965214e-18,-0.02892844287036953,0.9995814850191534,0,6.244558421765319,15.120212331918196,-0.5628313547218893,1],"mesh":10},{"name":"Cube","matrix":[-0.7130778594162943,0.7007914351386548,0.0202812930204128,0,0.7010848496510782,0.7127794256496187,0.02062823211824964,0,-2.602085213965214e-18,-0.02892844287036953,0.9995814850191534,0,6.244558421765319,15.120212331918196,-0.5628313547218893,1],"mesh":11},{"name":"Sphere 8","matrix":[1,0,0,0,0,1,0,0,0,0,1,0,0,-63.08780636447409,63.64092570552208,1],"mesh":12},{"name":"Sphere 3","matrix":[1,0,0,0,0,1,0,0,0,0,1,0,0,0,88.96709067520663,1],"mesh":13},{"name":"Sphere 7","matrix":[1,0,0,0,0,1,0,0,0,0,-1.6653231461289866,0,-30.311514405349747,128.35505845705578,53.84243351287296,1],"mesh":14},{"name":"Sphere 6","matrix":[1,0,0,0,0,1,0,0,0,0,2.1018651604893077,0,28.14854770375534,127.5828389689539,46.87246305708861,1],"mesh":15},{"name":"Sphere 5","matrix":[1,0,0,0,0,1,0,0,0,0,1,0,0,-30.0008220605946,84.25476176155098,1],"mesh":16},{"name":"Sphere 4","matrix":[1,0,0,0,0,1,0,0,0,0,1,0,0,37.796745188290515,80.89375833984647,1],"mesh":17},{"name":"Sphere 2","matrix":[-0.23293775830363778,-0.24753710306352472,-0.9404601976497405,0,-0.4433671212687792,0.8877430486676597,-0.12384617604142824,0,0.8655435266549605,0.3881206798782668,-0.31653868849876987,0,-0.9999999999999787,112.66682503073483,1.6277633361511485,1],"mesh":18},{"name":"Default Directional Light","translation":[850000,1300000,1000000],"rotation":[-0.45895513091666534,0.1367267597249462,-0.25064115022945466,0.8413352451859125],"extensions":{"KHR_lights_punctual":{"light":0}}}],"cameras":[{"type":"orthographic","orthographic":{"xmag":1366,"ymag":706,"zfar":50000,"znear":-50000}}],"meshes":[{"primitives":[{"attributes":{"POSITION":1,"NORMAL":2,"TEXCOORD_0":3},"indices":0}]},{"primitives":[{"attributes":{"POSITION":5,"NORMAL":6,"TEXCOORD_0":7},"indices":4}]},{"primitives":[{"attributes":{"POSITION":9,"NORMAL":10,"TEXCOORD_0":11},"indices":8}]},{"primitives":[{"attributes":{"POSITION":13,"NORMAL":14,"TEXCOORD_0":15},"indices":12}]},{"primitives":[{"attributes":{"POSITION":17,"NORMAL":18,"TEXCOORD_0":19},"indices":16}]},{"primitives":[{"attributes":{"POSITION":21,"NORMAL":22,"TEXCOORD_0":23},"indices":20}]},{"primitives":[{"attributes":{"POSITION":25,"NORMAL":26,"TEXCOORD_0":27},"indices":24}]},{"primitives":[{"attributes":{"POSITION":29,"NORMAL":30,"TEXCOORD_0":31},"indices":28}]},{"primitives":[{"attributes":{"POSITION":33,"NORMAL":34,"TEXCOORD_0":35},"indices":32}]},{"primitives":[{"attributes":{"POSITION":37,"NORMAL":38,"TEXCOORD_0":39},"indices":36}]},{"primitives":[{"attributes":{"POSITION":41,"NORMAL":42,"TEXCOORD_0":43},"indices":40}]},{"primitives":[{"attributes":{"POSITION":45,"NORMAL":46,"TEXCOORD_0":47},"indices":44}]},{"primitives":[{"attributes":{"POSITION":49,"NORMAL":50,"TEXCOORD_0":51},"indices":48}]},{"primitives":[{"attributes":{"POSITION":53,"NORMAL":54,"TEXCOORD_0":55},"indices":52}]},{"primitives":[{"attributes":{"POSITION":57,"NORMAL":58,"TEXCOORD_0":59},"indices":56}]},{"primitives":[{"attributes":{"POSITION":61,"NORMAL":62,"TEXCOORD_0":63},"indices":60}]},{"primitives":[{"attributes":{"POSITION":65,"NORMAL":66,"TEXCOORD_0":67},"indices":64}]},{"primitives":[{"attributes":{"POSITION":69,"NORMAL":70,"TEXCOORD_0":71},"indices":68}]},{"primitives":[{"attributes":{"POSITION":73,"NORMAL":74,"TEXCOORD_0":75},"indices":72}]}],"buffers":[{"uri":"data:application/octet-stream;base64,","byteLength":183584},{"uri":"data:application/octet-stream;base64,","byteLength":183584},{"uri":"data:application/octet-stream;base64,","byteLength":840},{"uri":"data:application/octet-stream;base64,","byteLength":840},{"uri":"data:application/octet-stream;base64,","byteLength":840},{"uri":"data:application/octet-stream;base64,","byteLength":840},{"uri":"data:application/octet-stream;base64,","byteLength":183584},{"uri":"data:application/octet-stream;base64,","byteLength":183584},{"uri":"data:application/octet-stream;base64,","byteLength":840},{"uri":"data:application/octet-stream;base64,","byteLength":840},{"uri":"data:application/octet-stream;base64,","byteLength":840},{"uri":"data:application/octet-stream;base64,","byteLength":840},{"uri":"data:application/octet-stream;base64,","byteLength":183584},{"uri":"data:application/octet-stream;base64,","byteLength":183584},{"uri":"data:application/octet-stream;base64,","byteLength":183584},{"uri":"data:application/octet-stream;base64,","byteLength":183584},{"uri":"data:application/octet-stream;base64,","byteLength":183584},{"uri":"data:application/octet-stream;base64,","byteLength":183584},{"uri":"data:application/octet-stream;base64,","byteLength":183584}],"bufferViews":[{"buffer":0,"byteOffset":0,"byteLength":48384,"target":34963},{"buffer":0,"byteOffset":48384,"byteLength":50700,"target":34962},{"buffer":0,"byteOffset":99084,"byteLength":50700,"target":34962},{"buffer":0,"byteOffset":149784,"byteLength":33800,"target":34962},{"buffer":1,"byteOffset":0,"byteLength":48384,"target":34963},{"buffer":1,"byteOffset":48384,"byteLength":50700,"target":34962},{"buffer":1,"byteOffset":99084,"byteLength":50700,"target":34962},{"buffer":1,"byteOffset":149784,"byteLength":33800,"target":34962},{"buffer":2,"byteOffset":0,"byteLength":72,"target":34963},{"buffer":2,"byteOffset":72,"byteLength":288,"target":34962},{"buffer":2,"byteOffset":360,"byteLength":288,"target":34962},{"buffer":2,"byteOffset":648,"byteLength":192,"target":34962},{"buffer":3,"byteOffset":0,"byteLength":72,"target":34963},{"buffer":3,"byteOffset":72,"byteLength":288,"target":34962},{"buffer":3,"byteOffset":360,"byteLength":288,"target":34962},{"buffer":3,"byteOffset":648,"byteLength":192,"target":34962},{"buffer":4,"byteOffset":0,"byteLength":72,"target":34963},{"buffer":4,"byteOffset":72,"byteLength":288,"target":34962},{"buffer":4,"byteOffset":360,"byteLength":288,"target":34962},{"buffer":4,"byteOffset":648,"byteLength":192,"target":34962},{"buffer":5,"byteOffset":0,"byteLength":72,"target":34963},{"buffer":5,"byteOffset":72,"byteLength":288,"target":34962},{"buffer":5,"byteOffset":360,"byteLength":288,"target":34962},{"buffer":5,"byteOffset":648,"byteLength":192,"target":34962},{"buffer":6,"byteOffset":0,"byteLength":48384,"target":34963},{"buffer":6,"byteOffset":48384,"byteLength":50700,"target":34962},{"buffer":6,"byteOffset":99084,"byteLength":50700,"target":34962},{"buffer":6,"byteOffset":149784,"byteLength":33800,"target":34962},{"buffer":7,"byteOffset":0,"byteLength":48384,"target":34963},{"buffer":7,"byteOffset":48384,"byteLength":50700,"target":34962},{"buffer":7,"byteOffset":99084,"byteLength":50700,"target":34962},{"buffer":7,"byteOffset":149784,"byteLength":33800,"target":34962},{"buffer":8,"byteOffset":0,"byteLength":72,"target":34963},{"buffer":8,"byteOffset":72,"byteLength":288,"target":34962},{"buffer":8,"byteOffset":360,"byteLength":288,"target":34962},{"buffer":8,"byteOffset":648,"byteLength":192,"target":34962},{"buffer":9,"byteOffset":0,"byteLength":72,"target":34963},{"buffer":9,"byteOffset":72,"byteLength":288,"target":34962},{"buffer":9,"byteOffset":360,"byteLength":288,"target":34962},{"buffer":9,"byteOffset":648,"byteLength":192,"target":34962},{"buffer":10,"byteOffset":0,"byteLength":72,"target":34963},{"buffer":10,"byteOffset":72,"byteLength":288,"target":34962},{"buffer":10,"byteOffset":360,"byteLength":288,"target":34962},{"buffer":10,"byteOffset":648,"byteLength":192,"target":34962},{"buffer":11,"byteOffset":0,"byteLength":72,"target":34963},{"buffer":11,"byteOffset":72,"byteLength":288,"target":34962},{"buffer":11,"byteOffset":360,"byteLength":288,"target":34962},{"buffer":11,"byteOffset":648,"byteLength":192,"target":34962},{"buffer":12,"byteOffset":0,"byteLength":48384,"target":34963},{"buffer":12,"byteOffset":48384,"byteLength":50700,"target":34962},{"buffer":12,"byteOffset":99084,"byteLength":50700,"target":34962},{"buffer":12,"byteOffset":149784,"byteLength":33800,"target":34962},{"buffer":13,"byteOffset":0,"byteLength":48384,"target":34963},{"buffer":13,"byteOffset":48384,"byteLength":50700,"target":34962},{"buffer":13,"byteOffset":99084,"byteLength":50700,"target":34962},{"buffer":13,"byteOffset":149784,"byteLength":33800,"target":34962},{"buffer":14,"byteOffset":0,"byteLength":48384,"target":34963},{"buffer":14,"byteOffset":48384,"byteLength":50700,"target":34962},{"buffer":14,"byteOffset":99084,"byteLength":50700,"target":34962},{"buffer":14,"byteOffset":149784,"byteLength":33800,"target":34962},{"buffer":15,"byteOffset":0,"byteLength":48384,"target":34963},{"buffer":15,"byteOffset":48384,"byteLength":50700,"target":34962},{"buffer":15,"byteOffset":99084,"byteLength":50700,"target":34962},{"buffer":15,"byteOffset":149784,"byteLength":33800,"target":34962},{"buffer":16,"byteOffset":0,"byteLength":48384,"target":34963},{"buffer":16,"byteOffset":48384,"byteLength":50700,"target":34962},{"buffer":16,"byteOffset":99084,"byteLength":50700,"target":34962},{"buffer":16,"byteOffset":149784,"byteLength":33800,"target":34962},{"buffer":17,"byteOffset":0,"byteLength":48384,"target":34963},{"buffer":17,"byteOffset":48384,"byteLength":50700,"target":34962},{"buffer":17,"byteOffset":99084,"byteLength":50700,"target":34962},{"buffer":17,"byteOffset":149784,"byteLength":33800,"target":34962},{"buffer":18,"byteOffset":0,"byteLength":48384,"target":34963},{"buffer":18,"byteOffset":48384,"byteLength":50700,"target":34962},{"buffer":18,"byteOffset":99084,"byteLength":50700,"target":34962},{"buffer":18,"byteOffset":149784,"byteLength":33800,"target":34962}],"accessors":[{"bufferView":0,"byteOffset":0,"componentType":5123,"count":24192,"type":"SCALAR","min":[0],"max":[4224]},{"bufferView":1,"byteOffset":0,"componentType":5126,"count":4225,"type":"VEC3","min":[-55,-54.5,-57],"max":[55,54.5,57]},{"bufferView":2,"byteOffset":0,"componentType":5126,"count":4225,"type":"VEC3","min":[-1,-1,-1],"max":[1,1,1]},{"bufferView":3,"byteOffset":0,"componentType":5126,"count":4225,"type":"VEC2","min":[-0.0078125,0],"max":[1.0078125,1]},{"bufferView":4,"byteOffset":0,"componentType":5123,"count":24192,"type":"SCALAR","min":[0],"max":[4224]},{"bufferView":5,"byteOffset":0,"componentType":5126,"count":4225,"type":"VEC3","min":[-65,-13,-65.5],"max":[65,13,65.5]},{"bufferView":6,"byteOffset":0,"componentType":5126,"count":4225,"type":"VEC3","min":[-1,-1,-1],"max":[1,1,1]},{"bufferView":7,"byteOffset":0,"componentType":5126,"count":4225,"type":"VEC2","min":[-0.0078125,0],"max":[1.0078125,1]},{"bufferView":8,"byteOffset":0,"componentType":5123,"count":36,"type":"SCALAR","min":[0],"max":[23]},{"bufferView":9,"byteOffset":0,"componentType":5126,"count":24,"type":"VEC3","min":[-1,-16,-1],"max":[1,16,1]},{"bufferView":10,"byteOffset":0,"componentType":5126,"count":24,"type":"VEC3","min":[-1,-1,-1],"max":[1,1,1]},{"bufferView":11,"byteOffset":0,"componentType":5126,"count":24,"type":"VEC2","min":[0,0],"max":[1,1]},{"bufferView":12,"byteOffset":0,"componentType":5123,"count":36,"type":"SCALAR","min":[0],"max":[23]},{"bufferView":13,"byteOffset":0,"componentType":5126,"count":24,"type":"VEC3","min":[-1,-16,-1],"max":[1,16,1]},{"bufferView":14,"byteOffset":0,"componentType":5126,"count":24,"type":"VEC3","min":[-1,-1,-1],"max":[1,1,1]},{"bufferView":15,"byteOffset":0,"componentType":5126,"count":24,"type":"VEC2","min":[0,0],"max":[1,1]},{"bufferView":16,"byteOffset":0,"componentType":5123,"count":36,"type":"SCALAR","min":[0],"max":[23]},{"bufferView":17,"byteOffset":0,"componentType":5126,"count":24,"type":"VEC3","min":[-1,-16,-1],"max":[1,16,1]},{"bufferView":18,"byteOffset":0,"componentType":5126,"count":24,"type":"VEC3","min":[-1,-1,-1],"max":[1,1,1]},{"bufferView":19,"byteOffset":0,"componentType":5126,"count":24,"type":"VEC2","min":[0,0],"max":[1,1]},{"bufferView":20,"byteOffset":0,"componentType":5123,"count":36,"type":"SCALAR","min":[0],"max":[23]},{"bufferView":21,"byteOffset":0,"componentType":5126,"count":24,"type":"VEC3","min":[-1,-16,-1],"max":[1,16,1]},{"bufferView":22,"byteOffset":0,"componentType":5126,"count":24,"type":"VEC3","min":[-1,-1,-1],"max":[1,1,1]},{"bufferView":23,"byteOffset":0,"componentType":5126,"count":24,"type":"VEC2","min":[0,0],"max":[1,1]},{"bufferView":24,"byteOffset":0,"componentType":5123,"count":24192,"type":"SCALAR","min":[0],"max":[4224]},{"bufferView":25,"byteOffset":0,"componentType":5126,"count":4225,"type":"VEC3","min":[-7.5,-8,-36],"max":[7.5,8,36]},{"bufferView":26,"byteOffset":0,"componentType":5126,"count":4225,"type":"VEC3","min":[-1,-1,-1],"max":[1,1,1]},{"bufferView":27,"byteOffset":0,"componentType":5126,"count":4225,"type":"VEC2","min":[-0.0078125,0],"max":[1.0078125,1]},{"bufferView":28,"byteOffset":0,"componentType":5123,"count":24192,"type":"SCALAR","min":[0],"max":[4224]},{"bufferView":29,"byteOffset":0,"componentType":5126,"count":4225,"type":"VEC3","min":[-94,-94,-93.5],"max":[94,94,93.5]},{"bufferView":30,"byteOffset":0,"componentType":5126,"count":4225,"type":"VEC3","min":[-1,-1,-1],"max":[1,1,1]},{"bufferView":31,"byteOffset":0,"componentType":5126,"count":4225,"type":"VEC2","min":[-0.0078125,0],"max":[1.0078125,1]},{"bufferView":32,"byteOffset":0,"componentType":5123,"count":36,"type":"SCALAR","min":[0],"max":[23]},{"bufferView":33,"byteOffset":0,"componentType":5126,"count":24,"type":"VEC3","min":[-1,-10.5,-1],"max":[1,10.5,1]},{"bufferView":34,"byteOffset":0,"componentType":5126,"count":24,"type":"VEC3","min":[-1,-1,-1],"max":[1,1,1]},{"bufferView":35,"byteOffset":0,"componentType":5126,"count":24,"type":"VEC2","min":[0,0],"max":[1,1]},{"bufferView":36,"byteOffset":0,"componentType":5123,"count":36,"type":"SCALAR","min":[0],"max":[23]},{"bufferView":37,"byteOffset":0,"componentType":5126,"count":24,"type":"VEC3","min":[-1,-10.5,-1],"max":[1,10.5,1]},{"bufferView":38,"byteOffset":0,"componentType":5126,"count":24,"type":"VEC3","min":[-1,-1,-1],"max":[1,1,1]},{"bufferView":39,"byteOffset":0,"componentType":5126,"count":24,"type":"VEC2","min":[0,0],"max":[1,1]},{"bufferView":40,"byteOffset":0,"componentType":5123,"count":36,"type":"SCALAR","min":[0],"max":[23]},{"bufferView":41,"byteOffset":0,"componentType":5126,"count":24,"type":"VEC3","min":[-1,-10.5,-1],"max":[1,10.5,1]},{"bufferView":42,"byteOffset":0,"componentType":5126,"count":24,"type":"VEC3","min":[-1,-1,-1],"max":[1,1,1]},{"bufferView":43,"byteOffset":0,"componentType":5126,"count":24,"type":"VEC2","min":[0,0],"max":[1,1]},{"bufferView":44,"byteOffset":0,"componentType":5123,"count":36,"type":"SCALAR","min":[0],"max":[23]},{"bufferView":45,"byteOffset":0,"componentType":5126,"count":24,"type":"VEC3","min":[-1,-10.5,-1],"max":[1,10.5,1]},{"bufferView":46,"byteOffset":0,"componentType":5126,"count":24,"type":"VEC3","min":[-1,-1,-1],"max":[1,1,1]},{"bufferView":47,"byteOffset":0,"componentType":5126,"count":24,"type":"VEC2","min":[0,0],"max":[1,1]},{"bufferView":48,"byteOffset":0,"componentType":5123,"count":24192,"type":"SCALAR","min":[0],"max":[4224]},{"bufferView":49,"byteOffset":0,"componentType":5126,"count":4225,"type":"VEC3","min":[-9.5,-9,-9.5],"max":[9.5,9,9.5]},{"bufferView":50,"byteOffset":0,"componentType":5126,"count":4225,"type":"VEC3","min":[-1,-1,-1],"max":[1,1,1]},{"bufferView":51,"byteOffset":0,"componentType":5126,"count":4225,"type":"VEC2","min":[-0.0078125,0],"max":[1.0078125,1]},{"bufferView":52,"byteOffset":0,"componentType":5123,"count":24192,"type":"SCALAR","min":[0],"max":[4224]},{"bufferView":53,"byteOffset":0,"componentType":5126,"count":4225,"type":"VEC3","min":[-9.5,-9,-9.5],"max":[9.5,9,9.5]},{"bufferView":54,"byteOffset":0,"componentType":5126,"count":4225,"type":"VEC3","min":[-1,-1,-1],"max":[1,1,1]},{"bufferView":55,"byteOffset":0,"componentType":5126,"count":4225,"type":"VEC2","min":[-0.0078125,0],"max":[1.0078125,1]},{"bufferView":56,"byteOffset":0,"componentType":5123,"count":24192,"type":"SCALAR","min":[0],"max":[4224]},{"bufferView":57,"byteOffset":0,"componentType":5126,"count":4225,"type":"VEC3","min":[-7,-4.5,-4],"max":[7,4.5,4]},{"bufferView":58,"byteOffset":0,"componentType":5126,"count":4225,"type":"VEC3","min":[-1,-1,-1],"max":[1,1,1]},{"bufferView":59,"byteOffset":0,"componentType":5126,"count":4225,"type":"VEC2","min":[-0.0078125,0],"max":[1.0078125,1]},{"bufferView":60,"byteOffset":0,"componentType":5123,"count":24192,"type":"SCALAR","min":[0],"max":[4224]},{"bufferView":61,"byteOffset":0,"componentType":5126,"count":4225,"type":"VEC3","min":[-9.5,-6,-4],"max":[9.5,6,4]},{"bufferView":62,"byteOffset":0,"componentType":5126,"count":4225,"type":"VEC3","min":[-1,-1,-1],"max":[1,1,1]},{"bufferView":63,"byteOffset":0,"componentType":5126,"count":4225,"type":"VEC2","min":[-0.0078125,0],"max":[1.0078125,1]},{"bufferView":64,"byteOffset":0,"componentType":5123,"count":24192,"type":"SCALAR","min":[0],"max":[4224]},{"bufferView":65,"byteOffset":0,"componentType":5126,"count":4225,"type":"VEC3","min":[-9.5,-9,-9.5],"max":[9.5,9,9.5]},{"bufferView":66,"byteOffset":0,"componentType":5126,"count":4225,"type":"VEC3","min":[-1,-1,-1],"max":[1,1,1]},{"bufferView":67,"byteOffset":0,"componentType":5126,"count":4225,"type":"VEC2","min":[-0.0078125,0],"max":[1.0078125,1]},{"bufferView":68,"byteOffset":0,"componentType":5123,"count":24192,"type":"SCALAR","min":[0],"max":[4224]},{"bufferView":69,"byteOffset":0,"componentType":5126,"count":4225,"type":"VEC3","min":[-9.5,-9,-9.5],"max":[9.5,9,9.5]},{"bufferView":70,"byteOffset":0,"componentType":5126,"count":4225,"type":"VEC3","min":[-1,-1,-1],"max":[1,1,1]},{"bufferView":71,"byteOffset":0,"componentType":5126,"count":4225,"type":"VEC2","min":[-0.0078125,0],"max":[1.0078125,1]},{"bufferView":72,"byteOffset":0,"componentType":5123,"count":24192,"type":"SCALAR","min":[0],"max":[4224]},{"bufferView":73,"byteOffset":0,"componentType":5126,"count":4225,"type":"VEC3","min":[-61,-60,-60.5],"max":[61,60,60.5]},{"bufferView":74,"byteOffset":0,"componentType":5126,"count":4225,"type":"VEC3","min":[-1,-1,-1],"max":[1,1,1]},{"bufferView":75,"byteOffset":0,"componentType":5126,"count":4225,"type":"VEC2","min":[-0.0078125,0],"max":[1.0078125,1]}],"extensions":{"KHR_lights_punctual":{"lights":[{"type":"directional","name":"Default Directional Light","color":[1,1,1],"intensity":0.75}]}},"extensionsUsed":["KHR_lights_punctual"]}